<svg width="256" height="256" viewBox="0 0 256 256" fill="none" xmlns="http://www.w3.org/2000/svg">
<rect width="256" height="256" fill="white"/>
<path d="M189 151H181.223V136.946H181.126C179.746 139.83 177.178 141.346 173.81 141.346C167.124 141.346 162.739 135.969 162.739 127.854C162.739 119.936 167.245 114.412 173.738 114.412C177.057 114.412 179.673 115.756 181.223 118.396H181.32V114.974H189V151ZM175.918 134.991C179.285 134.991 181.563 132.18 181.563 127.854C181.563 123.528 179.285 120.718 175.918 120.718C172.672 120.718 170.613 123.357 170.613 127.854C170.613 132.352 172.672 134.991 175.918 134.991Z" fill="black"/>
<path d="M151.184 140.784V114.974H158.96V140.784H151.184ZM155.06 112.139C152.516 112.139 150.699 110.404 150.699 108.057C150.699 105.711 152.516 104 155.06 104C157.58 104 159.421 105.711 159.421 108.057C159.421 110.404 157.58 112.139 155.06 112.139Z" fill="black"/>
<path d="M134.638 107.935H142.438V114.974H147.695V121.084H142.438V132.425C142.438 134.136 142.971 134.673 144.861 134.673H147.695V140.784H143.238C137.303 140.784 134.638 138.584 134.638 133.72V121.084H130.253V114.974H134.638V107.935Z" fill="black"/>
<path d="M115.233 141.37C107.336 141.37 101.982 136.042 101.982 127.903C101.982 119.764 107.336 114.387 115.233 114.387C123.131 114.387 128.46 119.764 128.46 127.903C128.46 136.018 123.131 141.37 115.233 141.37ZM115.233 135.065C118.383 135.065 120.587 132.449 120.587 127.903C120.587 123.333 118.383 120.693 115.233 120.693C112.06 120.693 109.855 123.308 109.855 127.903C109.855 132.449 112.06 135.065 115.233 135.065Z" fill="black"/>
<path d="M67 140.784V104.367H75.479L86.3562 121.866C87.2041 123.235 88.7303 125.972 90.1354 128.588C90.0627 125.728 90.0143 122.746 90.0143 121.158V104.367H98.1541V140.784H89.6509L79.7427 124.848C78.701 123.162 76.9325 120.107 74.9702 116.538C75.1156 120.229 75.1398 123.284 75.1398 124.824V140.784H67Z" fill="black"/>
</svg>
