<svg width="24" height="24" viewBox="0 0 24 24" fill="none" xmlns="http://www.w3.org/2000/svg">
<path d="M12.3906 6.41248H6.39063C6.19171 6.41248 6.00095 6.49149 5.8603 6.63215C5.71964 6.7728 5.64062 6.96356 5.64062 7.16248C5.64062 7.36139 5.71964 7.55215 5.8603 7.69281C6.00095 7.83346 6.19171 7.91248 6.39063 7.91248H12.3906C12.5895 7.91248 12.7803 7.83346 12.921 7.69281C13.0616 7.55215 13.1406 7.36139 13.1406 7.16248C13.1406 6.96356 13.0616 6.7728 12.921 6.63215C12.7803 6.49149 12.5895 6.41248 12.3906 6.41248Z" fill="white"/>
<path d="M12.3906 10.425H6.39063C6.19171 10.425 6.00095 10.5041 5.8603 10.6447C5.71964 10.7854 5.64062 10.9761 5.64062 11.175C5.64062 11.374 5.71964 11.5647 5.8603 11.7054C6.00095 11.846 6.19171 11.925 6.39063 11.925H12.3906C12.5895 11.925 12.7803 11.846 12.921 11.7054C13.0616 11.5647 13.1406 11.374 13.1406 11.175C13.1406 10.9761 13.0616 10.7854 12.921 10.6447C12.7803 10.5041 12.5895 10.425 12.3906 10.425Z" fill="white"/>
<path d="M12.3906 14.5275H6.39063C6.19171 14.5275 6.00095 14.6065 5.8603 14.7471C5.71964 14.8878 5.64062 15.0786 5.64062 15.2775C5.64062 15.4764 5.71964 15.6671 5.8603 15.8078C6.00095 15.9484 6.19171 16.0275 6.39063 16.0275H12.3906C12.5895 16.0275 12.7803 15.9484 12.921 15.8078C13.0616 15.6671 13.1406 15.4764 13.1406 15.2775C13.1406 15.0786 13.0616 14.8878 12.921 14.7471C12.7803 14.6065 12.5895 14.5275 12.3906 14.5275Z" fill="white"/>
<path d="M19.4022 0.75H4.59723C4.21248 0.750981 3.8317 0.827861 3.47671 0.976234C3.12172 1.12461 2.79948 1.34156 2.52847 1.61466C2.25746 1.88777 2.04299 2.21166 1.89735 2.56778C1.7517 2.9239 1.67775 3.30525 1.67973 3.69V21.9825C1.67924 22.1702 1.72872 22.3547 1.82309 22.5169C1.91747 22.6792 2.05333 22.8134 2.21673 22.9058C2.38013 22.9982 2.56518 23.0454 2.75287 23.0426C2.94056 23.0399 3.12413 22.9872 3.28473 22.89L6.04473 21.2325C6.08636 21.2066 6.13443 21.1928 6.18348 21.1928C6.23252 21.1928 6.28059 21.2066 6.32223 21.2325L9.38973 23.07C9.55107 23.1728 9.7384 23.2275 9.92973 23.2275C10.1222 23.2265 10.3111 23.1748 10.4772 23.0775L13.5597 21.2325C13.6014 21.2066 13.6494 21.1928 13.6985 21.1928C13.7475 21.1928 13.7956 21.2066 13.8372 21.2325L16.5822 22.89C16.7434 22.9857 16.9273 23.0363 17.1147 23.0363C17.3021 23.0363 17.4861 22.9857 17.6472 22.89C17.8086 22.7977 17.9427 22.6646 18.0362 22.5039C18.1297 22.3433 18.1792 22.1609 18.1797 21.975V9.33H20.5347C21.0075 9.32803 21.4604 9.13933 21.7947 8.80501C22.1291 8.47068 22.3178 8.0178 22.3197 7.545V3.69C22.3217 3.30525 22.2477 2.9239 22.1021 2.56778C21.9565 2.21166 21.742 1.88777 21.471 1.61466C21.2 1.34156 20.8777 1.12461 20.5227 0.976234C20.1678 0.827861 19.787 0.750981 19.4022 0.75ZM16.6797 21.195L14.6097 19.95C14.334 19.7863 14.0192 19.6999 13.6985 19.6999C13.3778 19.6999 13.063 19.7863 12.7872 19.95L9.93723 21.66L7.09473 19.9425C6.81568 19.7756 6.49634 19.6881 6.17118 19.6894C5.84603 19.6907 5.52741 19.7808 5.24973 19.95L3.17973 21.2025V3.69C3.17674 3.50197 3.2112 3.31522 3.2811 3.14063C3.351 2.96605 3.45494 2.80712 3.58686 2.6731C3.71879 2.53908 3.87606 2.43265 4.04952 2.36001C4.22299 2.28737 4.40917 2.24998 4.59723 2.25H16.9872C16.7892 2.62732 16.6838 3.04637 16.6797 3.4725V21.1725V21.195ZM20.8197 7.545C20.8197 7.62059 20.7897 7.69308 20.7363 7.74653C20.6828 7.79997 20.6103 7.83 20.5347 7.83H18.1797V3.495C18.1767 3.33258 18.2061 3.17118 18.2662 3.02026C18.3263 2.86933 18.4159 2.73189 18.5297 2.61598C18.6436 2.50007 18.7793 2.408 18.9291 2.34516C19.0789 2.28232 19.2398 2.24997 19.4022 2.25C19.7782 2.25 20.1387 2.39934 20.4046 2.66518C20.6704 2.93101 20.8197 3.29156 20.8197 3.6675V7.545Z" fill="white"/>
</svg>
