<svg width="30" height="30" viewBox="0 0 30 30" fill="none" xmlns="http://www.w3.org/2000/svg">
<path d="M11.2501 2.80957C6.60135 2.80958 2.81445 6.6038 2.81445 11.2526C2.81445 15.9013 6.60135 19.6882 11.2501 19.6882C11.5658 19.6882 11.8772 19.6709 12.184 19.637V24.0626C12.184 25.7776 13.5982 27.1845 15.3132 27.1845H24.0601C25.7751 27.1845 27.1875 25.7776 27.1875 24.0626V15.3157C27.1875 13.6006 25.7751 12.1864 24.0601 12.1864H19.6345C19.67 11.8797 19.6859 11.5681 19.6859 11.2526C19.6859 6.60378 15.8989 2.80956 11.2501 2.80957ZM11.2501 4.68457C14.8856 4.68456 17.8108 7.61711 17.8108 11.2526C17.8108 11.5698 17.7895 11.8815 17.7448 12.1864H15.3132C13.5982 12.1864 12.184 13.6006 12.184 15.3157V17.7473C11.8789 17.7904 11.5674 17.8132 11.2501 17.8132C7.61466 17.8132 4.68948 14.888 4.68948 11.2525C4.68948 7.61709 7.61466 4.68458 11.2501 4.68457ZM15.2473 14.0632C15.2685 14.0622 15.2913 14.0632 15.3132 14.0632H17.1846C16.5374 15.4333 15.4292 16.5402 14.0589 17.187V15.3157C14.0589 14.6291 14.5711 14.0958 15.2473 14.0632ZM19.2042 14.0632H24.0601C24.7688 14.0632 25.3126 14.607 25.3126 15.3157V24.0626C25.3126 24.7713 24.7688 25.3151 24.0601 25.3151H15.3132C14.6045 25.3151 14.0589 24.7713 14.0589 24.0626V19.2066C16.4527 18.3577 18.355 16.4569 19.2042 14.0632Z" fill="url(#paint0_linear_284_1721)"/>
<defs>
<linearGradient id="paint0_linear_284_1721" x1="23.5813" y1="26.7783" x2="1.53725" y2="24.2506" gradientUnits="userSpaceOnUse">
<stop stop-color="#F27CFF"/>
<stop offset="1" stop-color="#5937FF"/>
</linearGradient>
</defs>
</svg>
